<mxfile host="app.diagrams.net" modified="2023-04-17T16:37:47.128Z" agent="Mozilla/5.0 (Macintosh; Intel Mac OS X 10_15_7) AppleWebKit/537.36 (KHTML, like Gecko) Chrome/112.0.0.0 Safari/537.36" version="21.1.8" etag="_DIkavZKP8oORxN_ZFIj" type="device">
  <diagram id="nsQMCKpeWIIQLhjSixPt" name="Page-1">
    <mxGraphModel dx="2788" dy="1854" grid="1" gridSize="10" guides="1" tooltips="1" connect="1" arrows="1" fold="1" page="0" pageScale="1" pageWidth="850" pageHeight="1100" background="none" math="0" shadow="0">
      <root>
        <mxCell id="0" />
        <mxCell id="1" parent="0" />
        <mxCell id="node2" value="&lt;p style=&quot;margin:0px;margin-top:4px;text-align:center;&quot;&gt;&lt;b&gt;AccommodationsDao&lt;/b&gt;&lt;/p&gt;&lt;hr size=&quot;1&quot;/&gt;" style="verticalAlign=top;align=left;overflow=fill;fontSize=14;fontFamily=Helvetica;html=1;rounded=0;shadow=0;comic=0;labelBackgroundColor=none;strokeWidth=1;fillColor=#CCCC00;" parent="1" vertex="1">
          <mxGeometry x="126" y="126" width="215" height="30" as="geometry" />
        </mxCell>
        <mxCell id="node14" value="&lt;p style=&quot;margin:0px;margin-top:4px;text-align:center;&quot;&gt;&lt;b&gt;AddHotelButton&lt;/b&gt;&lt;/p&gt;&lt;hr size=&quot;1&quot;/&gt;" style="verticalAlign=top;align=left;overflow=fill;fontSize=14;fontFamily=Helvetica;html=1;rounded=0;shadow=0;comic=0;labelBackgroundColor=none;strokeWidth=1;fillColor=#9999FF;" parent="1" vertex="1">
          <mxGeometry x="-109" y="390" width="174" height="30" as="geometry" />
        </mxCell>
        <mxCell id="node0" value="&lt;p style=&quot;margin:0px;margin-top:4px;text-align:center;&quot;&gt;&lt;b&gt;AddHotelWindow&lt;/b&gt;&lt;/p&gt;&lt;hr size=&quot;1&quot;/&gt;" style="verticalAlign=top;align=left;overflow=fill;fontSize=14;fontFamily=Helvetica;html=1;rounded=0;shadow=0;comic=0;labelBackgroundColor=none;strokeWidth=1;fillColor=#B3FF66;" parent="1" vertex="1">
          <mxGeometry x="856" y="288" width="184" height="30" as="geometry" />
        </mxCell>
        <mxCell id="node11" value="&lt;p style=&quot;margin:0px;margin-top:4px;text-align:center;&quot;&gt;&lt;b&gt;AdminController&lt;/b&gt;&lt;/p&gt;&lt;hr size=&quot;1&quot;/&gt;" style="verticalAlign=top;align=left;overflow=fill;fontSize=14;fontFamily=Helvetica;html=1;rounded=0;shadow=0;comic=0;labelBackgroundColor=none;strokeWidth=1;fillColor=#9999FF;" parent="1" vertex="1">
          <mxGeometry x="794" y="573" width="175" height="30" as="geometry" />
        </mxCell>
        <mxCell id="node18" value="&lt;p style=&quot;margin:0px;margin-top:4px;text-align:center;&quot;&gt;&lt;b&gt;AdminWindow&lt;/b&gt;&lt;/p&gt;&lt;hr size=&quot;1&quot;/&gt;" style="verticalAlign=top;align=left;overflow=fill;fontSize=14;fontFamily=Helvetica;html=1;rounded=0;shadow=0;comic=0;labelBackgroundColor=none;strokeWidth=1;fillColor=#B3FF66;" parent="1" vertex="1">
          <mxGeometry x="1446" y="573" width="161" height="30" as="geometry" />
        </mxCell>
        <mxCell id="node20" value="&lt;p style=&quot;margin:0px;margin-top:4px;text-align:center;&quot;&gt;&lt;b&gt;Adress&lt;/b&gt;&lt;/p&gt;&lt;hr size=&quot;1&quot;/&gt;" style="verticalAlign=top;align=left;overflow=fill;fontSize=14;fontFamily=Helvetica;html=1;rounded=0;shadow=0;comic=0;labelBackgroundColor=none;strokeWidth=1;fillColor=#FF9999;" parent="1" vertex="1">
          <mxGeometry x="2" y="126" width="104" height="30" as="geometry" />
        </mxCell>
        <mxCell id="node21" value="&lt;p style=&quot;margin:0px;margin-top:4px;text-align:center;&quot;&gt;&lt;b&gt;Charts&lt;/b&gt;&lt;/p&gt;&lt;hr size=&quot;1&quot;/&gt;" style="verticalAlign=top;align=left;overflow=fill;fontSize=14;fontFamily=Helvetica;html=1;rounded=0;shadow=0;comic=0;labelBackgroundColor=none;strokeWidth=1;fillColor=#9999FF;" parent="1" vertex="1">
          <mxGeometry x="897" y="500" width="102" height="30" as="geometry" />
        </mxCell>
        <mxCell id="node34" value="&lt;p style=&quot;margin:0px;margin-top:4px;text-align:center;&quot;&gt;&lt;b&gt;Contact&lt;/b&gt;&lt;/p&gt;&lt;hr size=&quot;1&quot;/&gt;" style="verticalAlign=top;align=left;overflow=fill;fontSize=14;fontFamily=Helvetica;html=1;rounded=0;shadow=0;comic=0;labelBackgroundColor=none;strokeWidth=1;fillColor=#FF9999;" parent="1" vertex="1">
          <mxGeometry x="-130" y="126" width="112" height="30" as="geometry" />
        </mxCell>
        <mxCell id="node3" value="&lt;p style=&quot;margin:0px;margin-top:4px;text-align:center;&quot;&gt;&lt;b&gt;Data&lt;/b&gt;&lt;/p&gt;&lt;hr size=&quot;1&quot;/&gt;" style="verticalAlign=top;align=left;overflow=fill;fontSize=14;fontFamily=Helvetica;html=1;rounded=0;shadow=0;comic=0;labelBackgroundColor=none;strokeWidth=1;fillColor=#FF9999;" parent="1" vertex="1">
          <mxGeometry x="718" y="390" width="86" height="30" as="geometry" />
        </mxCell>
        <mxCell id="node26" value="&lt;p style=&quot;margin:0px;margin-top:4px;text-align:center;&quot;&gt;&lt;b&gt;Date&lt;/b&gt;&lt;/p&gt;&lt;hr size=&quot;1&quot;/&gt;" style="verticalAlign=top;align=left;overflow=fill;fontSize=14;fontFamily=Helvetica;html=1;rounded=0;shadow=0;comic=0;labelBackgroundColor=none;strokeWidth=1;fillColor=#FF9999;" parent="1" vertex="1">
          <mxGeometry x="214" y="646" width="87" height="30" as="geometry" />
        </mxCell>
        <mxCell id="node19" value="&lt;p style=&quot;margin:0px;margin-top:4px;text-align:center;&quot;&gt;&lt;b&gt;DateTime&lt;/b&gt;&lt;/p&gt;&lt;hr size=&quot;1&quot;/&gt;" style="verticalAlign=top;align=left;overflow=fill;fontSize=14;fontFamily=Helvetica;html=1;rounded=0;shadow=0;comic=0;labelBackgroundColor=none;strokeWidth=1;fillColor=#FF9999;" parent="1" vertex="1">
          <mxGeometry x="44" y="646" width="125" height="30" as="geometry" />
        </mxCell>
        <mxCell id="node22" value="&lt;p style=&quot;margin:0px;margin-top:4px;text-align:center;&quot;&gt;&lt;b&gt;EndView&lt;/b&gt;&lt;/p&gt;&lt;hr size=&quot;1&quot;/&gt;" style="verticalAlign=top;align=left;overflow=fill;fontSize=14;fontFamily=Helvetica;html=1;rounded=0;shadow=0;comic=0;labelBackgroundColor=none;strokeWidth=1;fillColor=#B3FF66;" parent="1" vertex="1">
          <mxGeometry x="1283" y="500" width="117" height="30" as="geometry" />
        </mxCell>
        <mxCell id="node25" value="&lt;p style=&quot;margin:0px;margin-top:4px;text-align:center;&quot;&gt;&lt;b&gt;EraseHotelButton&lt;/b&gt;&lt;/p&gt;&lt;hr size=&quot;1&quot;/&gt;" style="verticalAlign=top;align=left;overflow=fill;fontSize=14;fontFamily=Helvetica;html=1;rounded=0;shadow=0;comic=0;labelBackgroundColor=none;strokeWidth=1;fillColor=#9999FF;" parent="1" vertex="1">
          <mxGeometry x="692" y="500" width="185" height="30" as="geometry" />
        </mxCell>
        <mxCell id="node30" value="&lt;p style=&quot;margin:0px;margin-top:4px;text-align:center;&quot;&gt;&lt;b&gt;GuestController&lt;/b&gt;&lt;/p&gt;&lt;hr size=&quot;1&quot;/&gt;" style="verticalAlign=top;align=left;overflow=fill;fontSize=14;fontFamily=Helvetica;html=1;rounded=0;shadow=0;comic=0;labelBackgroundColor=none;strokeWidth=1;fillColor=#9999FF;" parent="1" vertex="1">
          <mxGeometry x="1218" y="126" width="172" height="30" as="geometry" />
        </mxCell>
        <mxCell id="node5" value="&lt;p style=&quot;margin:0px;margin-top:4px;text-align:center;&quot;&gt;&lt;b&gt;GuestWindow&lt;/b&gt;&lt;/p&gt;&lt;hr size=&quot;1&quot;/&gt;" style="verticalAlign=top;align=left;overflow=fill;fontSize=14;fontFamily=Helvetica;html=1;rounded=0;shadow=0;comic=0;labelBackgroundColor=none;strokeWidth=1;strokeColor=#000000;fillColor=#B3FF66;" parent="1" vertex="1">
          <mxGeometry x="1858" y="573" width="158" height="30" as="geometry" />
        </mxCell>
        <mxCell id="node24" value="&lt;p style=&quot;margin:0px;margin-top:4px;text-align:center;&quot;&gt;&lt;b&gt;HotelController&lt;/b&gt;&lt;/p&gt;&lt;hr size=&quot;1&quot;/&gt;" style="verticalAlign=top;align=left;overflow=fill;fontSize=14;fontFamily=Helvetica;html=1;rounded=0;shadow=0;comic=0;labelBackgroundColor=none;strokeWidth=1;fillColor=#9999FF;" parent="1" vertex="1">
          <mxGeometry x="1234" y="573" width="167" height="30" as="geometry" />
        </mxCell>
        <mxCell id="node35" value="&lt;p style=&quot;margin:0px;margin-top:4px;text-align:center;&quot;&gt;&lt;b&gt;HotelView&lt;/b&gt;&lt;/p&gt;&lt;hr size=&quot;1&quot;/&gt;" style="verticalAlign=top;align=left;overflow=fill;fontSize=14;fontFamily=Helvetica;html=1;rounded=0;shadow=0;comic=0;labelBackgroundColor=none;strokeWidth=1;fillColor=#B3FF66;" parent="1" vertex="1">
          <mxGeometry x="-130" y="646" width="129" height="30" as="geometry" />
        </mxCell>
        <mxCell id="node9" value="&lt;p style=&quot;margin:0px;margin-top:4px;text-align:center;&quot;&gt;&lt;b&gt;Hotels&lt;/b&gt;&lt;/p&gt;&lt;hr size=&quot;1&quot;/&gt;" style="verticalAlign=top;align=left;overflow=fill;fontSize=14;fontFamily=Helvetica;html=1;rounded=0;shadow=0;comic=0;labelBackgroundColor=none;strokeWidth=1;fillColor=#FF9999;" parent="1" vertex="1">
          <mxGeometry x="295" y="288" width="100" height="30" as="geometry" />
        </mxCell>
        <mxCell id="node33" value="&lt;p style=&quot;margin:0px;margin-top:4px;text-align:center;&quot;&gt;&lt;i&gt;&amp;lt;&amp;lt;interface&amp;gt;&amp;gt;&lt;/i&gt;&lt;br/&gt;&lt;b&gt;IAccommodationsDao&lt;/b&gt;&lt;/p&gt;&lt;hr size=&quot;1&quot;/&gt;" style="verticalAlign=top;align=left;overflow=fill;fontSize=14;fontFamily=Helvetica;html=1;rounded=0;shadow=0;comic=0;labelBackgroundColor=none;strokeWidth=1;fillColor=#CCCC00;" parent="1" vertex="1">
          <mxGeometry x="124" y="-14" width="219" height="35" as="geometry" />
        </mxCell>
        <mxCell id="node10" value="&lt;p style=&quot;margin:0px;margin-top:4px;text-align:center;&quot;&gt;&lt;i&gt;&amp;lt;&amp;lt;interface&amp;gt;&amp;gt;&lt;/i&gt;&lt;br/&gt;&lt;b&gt;IUsersDao&lt;/b&gt;&lt;/p&gt;&lt;hr size=&quot;1&quot;/&gt;" style="verticalAlign=top;align=left;overflow=fill;fontSize=14;fontFamily=Helvetica;html=1;rounded=0;shadow=0;comic=0;labelBackgroundColor=none;strokeWidth=1;fillColor=#CCCC00;" parent="1" vertex="1">
          <mxGeometry x="608" y="-14" width="130" height="35" as="geometry" />
        </mxCell>
        <mxCell id="node17" value="&lt;p style=&quot;margin:0px;margin-top:4px;text-align:center;&quot;&gt;&lt;b&gt;Main&lt;/b&gt;&lt;/p&gt;&lt;hr size=&quot;1&quot;/&gt;" style="verticalAlign=top;align=left;overflow=fill;fontSize=14;fontFamily=Helvetica;html=1;rounded=0;shadow=0;comic=0;labelBackgroundColor=none;strokeWidth=1;" parent="1" vertex="1">
          <mxGeometry x="2022" y="500" width="87" height="30" as="geometry" />
        </mxCell>
        <mxCell id="node32" value="&lt;p style=&quot;margin:0px;margin-top:4px;text-align:center;&quot;&gt;&lt;b&gt;MainPage&lt;/b&gt;&lt;/p&gt;&lt;hr size=&quot;1&quot;/&gt;" style="verticalAlign=top;align=left;overflow=fill;fontSize=14;fontFamily=Helvetica;html=1;rounded=0;shadow=0;comic=0;labelBackgroundColor=none;strokeWidth=1;fillColor=#FF9999;" parent="1" vertex="1">
          <mxGeometry x="1924" y="390" width="126" height="30" as="geometry" />
        </mxCell>
        <mxCell id="node12" value="&lt;p style=&quot;margin:0px;margin-top:4px;text-align:center;&quot;&gt;&lt;b&gt;MemberController&lt;/b&gt;&lt;/p&gt;&lt;hr size=&quot;1&quot;/&gt;" style="verticalAlign=top;align=left;overflow=fill;fontSize=14;fontFamily=Helvetica;html=1;rounded=0;shadow=0;comic=0;labelBackgroundColor=none;strokeWidth=1;fillColor=#9999FF;" parent="1" vertex="1">
          <mxGeometry x="1801" y="500" width="190" height="30" as="geometry" />
        </mxCell>
        <mxCell id="node6" value="&lt;p style=&quot;margin:0px;margin-top:4px;text-align:center;&quot;&gt;&lt;b&gt;MemberWindow&lt;/b&gt;&lt;/p&gt;&lt;hr size=&quot;1&quot;/&gt;" style="verticalAlign=top;align=left;overflow=fill;fontSize=14;fontFamily=Helvetica;html=1;rounded=0;shadow=0;comic=0;labelBackgroundColor=none;strokeWidth=1;fillColor=#B3FF66;" parent="1" vertex="1">
          <mxGeometry x="573" y="573" width="176" height="30" as="geometry" />
        </mxCell>
        <mxCell id="node27" value="&lt;p style=&quot;margin:0px;margin-top:4px;text-align:center;&quot;&gt;&lt;b&gt;Members&lt;/b&gt;&lt;/p&gt;&lt;hr size=&quot;1&quot;/&gt;" style="verticalAlign=top;align=left;overflow=fill;fontSize=14;fontFamily=Helvetica;html=1;rounded=0;shadow=0;comic=0;labelBackgroundColor=none;strokeWidth=1;fillColor=#FF9999;" parent="1" vertex="1">
          <mxGeometry x="1529" y="288" width="123" height="30" as="geometry" />
        </mxCell>
        <mxCell id="node31" value="&lt;p style=&quot;margin:0px;margin-top:4px;text-align:center;&quot;&gt;&lt;b&gt;ModifyHotelButton&lt;/b&gt;&lt;/p&gt;&lt;hr size=&quot;1&quot;/&gt;" style="verticalAlign=top;align=left;overflow=fill;fontSize=14;fontFamily=Helvetica;html=1;rounded=0;shadow=0;comic=0;labelBackgroundColor=none;strokeWidth=1;fillColor=#9999FF;" parent="1" vertex="1">
          <mxGeometry x="477" y="500" width="195" height="30" as="geometry" />
        </mxCell>
        <mxCell id="node29" value="&lt;p style=&quot;margin:0px;margin-top:4px;text-align:center;&quot;&gt;&lt;b&gt;PastOrder&lt;/b&gt;&lt;/p&gt;&lt;hr size=&quot;1&quot;/&gt;" style="verticalAlign=top;align=left;overflow=fill;fontSize=14;fontFamily=Helvetica;html=1;rounded=0;shadow=0;comic=0;labelBackgroundColor=none;strokeWidth=1;fillColor=#FF9999;" parent="1" vertex="1">
          <mxGeometry x="1411" y="126" width="128" height="30" as="geometry" />
        </mxCell>
        <mxCell id="node23" value="&lt;p style=&quot;margin:0px;margin-top:4px;text-align:center;&quot;&gt;&lt;b&gt;PaymentMethod&lt;/b&gt;&lt;/p&gt;&lt;hr size=&quot;1&quot;/&gt;" style="verticalAlign=top;align=left;overflow=fill;fontSize=14;fontFamily=Helvetica;html=1;rounded=0;shadow=0;comic=0;labelBackgroundColor=none;strokeWidth=1;fillColor=#FF9999;" parent="1" vertex="1">
          <mxGeometry x="1409" y="-14" width="177" height="30" as="geometry" />
        </mxCell>
        <mxCell id="node16" value="&lt;p style=&quot;margin:0px;margin-top:4px;text-align:center;&quot;&gt;&lt;b&gt;Rating&lt;/b&gt;&lt;/p&gt;&lt;hr size=&quot;1&quot;/&gt;" style="verticalAlign=top;align=left;overflow=fill;fontSize=14;fontFamily=Helvetica;html=1;rounded=0;shadow=0;comic=0;labelBackgroundColor=none;strokeWidth=1;fillColor=#FF9999;" parent="1" vertex="1">
          <mxGeometry x="361" y="126" width="99" height="30" as="geometry" />
        </mxCell>
        <mxCell id="node39" value="&lt;p style=&quot;margin:0px;margin-top:4px;text-align:center;&quot;&gt;&lt;b&gt;Recherche&lt;/b&gt;&lt;/p&gt;&lt;hr size=&quot;1&quot;/&gt;" style="verticalAlign=top;align=left;overflow=fill;fontSize=14;fontFamily=Helvetica;html=1;rounded=0;shadow=0;comic=0;labelBackgroundColor=none;strokeWidth=1;fillColor=#FF9999;" parent="1" vertex="1">
          <mxGeometry x="1669" y="-14" width="133" height="30" as="geometry" />
        </mxCell>
        <mxCell id="node13" value="&lt;p style=&quot;margin:0px;margin-top:4px;text-align:center;&quot;&gt;&lt;b&gt;ResearchController&lt;/b&gt;&lt;/p&gt;&lt;hr size=&quot;1&quot;/&gt;" style="verticalAlign=top;align=left;overflow=fill;fontSize=14;fontFamily=Helvetica;html=1;rounded=0;shadow=0;comic=0;labelBackgroundColor=none;strokeWidth=1;fillColor=#9999FF;" parent="1" vertex="1">
          <mxGeometry x="-130" y="573" width="198" height="30" as="geometry" />
        </mxCell>
        <mxCell id="node1" value="&lt;p style=&quot;margin:0px;margin-top:4px;text-align:center;&quot;&gt;&lt;b&gt;ResearchView&lt;/b&gt;&lt;/p&gt;&lt;hr size=&quot;1&quot;/&gt;" style="verticalAlign=top;align=left;overflow=fill;fontSize=14;fontFamily=Helvetica;html=1;rounded=0;shadow=0;comic=0;labelBackgroundColor=none;strokeWidth=1;fillColor=#B3FF66;" parent="1" vertex="1">
          <mxGeometry x="1726" y="288" width="160" height="30" as="geometry" />
        </mxCell>
        <mxCell id="node8" value="&lt;p style=&quot;margin:0px;margin-top:4px;text-align:center;&quot;&gt;&lt;b&gt;Review&lt;/b&gt;&lt;/p&gt;&lt;hr size=&quot;1&quot;/&gt;" style="verticalAlign=top;align=left;overflow=fill;fontSize=14;fontFamily=Helvetica;html=1;rounded=0;shadow=0;comic=0;labelBackgroundColor=none;strokeWidth=1;fillColor=#FF9999;" parent="1" vertex="1">
          <mxGeometry x="1559" y="126" width="106" height="30" as="geometry" />
        </mxCell>
        <mxCell id="node15" value="&lt;p style=&quot;margin:0px;margin-top:4px;text-align:center;&quot;&gt;&lt;b&gt;Room_RecapController&lt;/b&gt;&lt;/p&gt;&lt;hr size=&quot;1&quot;/&gt;" style="verticalAlign=top;align=left;overflow=fill;fontSize=14;fontFamily=Helvetica;html=1;rounded=0;shadow=0;comic=0;labelBackgroundColor=none;strokeWidth=1;fillColor=#9999FF;" parent="1" vertex="1">
          <mxGeometry x="756" y="126" width="226" height="30" as="geometry" />
        </mxCell>
        <mxCell id="node41" value="&lt;p style=&quot;margin:0px;margin-top:4px;text-align:center;&quot;&gt;&lt;b&gt;Room_RecapView&lt;/b&gt;&lt;/p&gt;&lt;hr size=&quot;1&quot;/&gt;" style="verticalAlign=top;align=left;overflow=fill;fontSize=14;fontFamily=Helvetica;html=1;rounded=0;shadow=0;comic=0;labelBackgroundColor=none;strokeWidth=1;fillColor=#B3FF66;" parent="1" vertex="1">
          <mxGeometry x="113" y="573" width="187" height="30" as="geometry" />
        </mxCell>
        <mxCell id="node28" value="&lt;p style=&quot;margin:0px;margin-top:4px;text-align:center;&quot;&gt;&lt;b&gt;Rooms&lt;/b&gt;&lt;/p&gt;&lt;hr size=&quot;1&quot;/&gt;" style="verticalAlign=top;align=left;overflow=fill;fontSize=14;fontFamily=Helvetica;html=1;rounded=0;shadow=0;comic=0;labelBackgroundColor=none;strokeWidth=1;fillColor=#FF9999;" parent="1" vertex="1">
          <mxGeometry x="480" y="126" width="103" height="30" as="geometry" />
        </mxCell>
        <mxCell id="node37" value="&lt;p style=&quot;margin:0px;margin-top:4px;text-align:center;&quot;&gt;&lt;b&gt;Users&lt;/b&gt;&lt;/p&gt;&lt;hr size=&quot;1&quot;/&gt;" style="verticalAlign=top;align=left;overflow=fill;fontSize=14;fontFamily=Helvetica;html=1;rounded=0;shadow=0;comic=0;labelBackgroundColor=none;strokeWidth=1;fillColor=#FF9999;" parent="1" vertex="1">
          <mxGeometry x="1784" y="126" width="95" height="30" as="geometry" />
        </mxCell>
        <mxCell id="node7" value="&lt;p style=&quot;margin:0px;margin-top:4px;text-align:center;&quot;&gt;&lt;b&gt;UsersDao&lt;/b&gt;&lt;/p&gt;&lt;hr size=&quot;1&quot;/&gt;" style="verticalAlign=top;align=left;overflow=fill;fontSize=14;fontFamily=Helvetica;html=1;rounded=0;shadow=0;comic=0;labelBackgroundColor=none;strokeWidth=1;fillColor=#CCCC00;" parent="1" vertex="1">
          <mxGeometry x="610" y="126" width="126" height="30" as="geometry" />
        </mxCell>
        <mxCell id="node36" value="&lt;p style=&quot;margin:0px;margin-top:4px;text-align:center;&quot;&gt;&lt;b&gt;WelcomeWindow&lt;/b&gt;&lt;/p&gt;&lt;hr size=&quot;1&quot;/&gt;" style="verticalAlign=top;align=left;overflow=fill;fontSize=14;fontFamily=Helvetica;html=1;rounded=0;shadow=0;comic=0;labelBackgroundColor=none;strokeWidth=1;fillColor=#B3FF66;" parent="1" vertex="1">
          <mxGeometry x="345" y="573" width="183" height="30" as="geometry" />
        </mxCell>
        <mxCell id="node4" value="&lt;p style=&quot;margin:0px;margin-top:4px;text-align:center;&quot;&gt;&lt;b&gt;WelcomeWindowController&lt;/b&gt;&lt;/p&gt;&lt;hr size=&quot;1&quot;/&gt;" style="verticalAlign=top;align=left;overflow=fill;fontSize=14;fontFamily=Helvetica;html=1;rounded=0;shadow=0;comic=0;labelBackgroundColor=none;strokeWidth=1;fillColor=#9999FF;" parent="1" vertex="1">
          <mxGeometry x="1480" y="500" width="259" height="30" as="geometry" />
        </mxCell>
        <mxCell id="edge2" value="" style="html=1;rounded=1;edgeStyle=orthogonalEdgeStyle;dashed=1;startArrow=none;endArrow=block;endSize=12;strokeColor=#008200;exitX=0.500;exitY=0.001;exitDx=0;exitDy=0;entryX=0.500;entryY=1.001;entryDx=0;entryDy=0;" parent="1" source="node2" target="node33" edge="1">
          <mxGeometry width="50" height="50" relative="1" as="geometry">
            <Array as="points" />
          </mxGeometry>
        </mxCell>
        <mxCell id="edge39" value="" style="html=1;rounded=1;edgeStyle=orthogonalEdgeStyle;dashed=1;startArrow=none;endArrow=openThin;endSize=12;strokeColor=#595959;exitX=0.500;exitY=0.001;exitDx=0;exitDy=0;entryX=0.500;entryY=1.002;entryDx=0;entryDy=0;" parent="1" source="node14" target="node2" edge="1">
          <mxGeometry width="50" height="50" relative="1" as="geometry">
            <Array as="points">
              <mxPoint x="-22" y="353" />
              <mxPoint x="234" y="353" />
            </Array>
          </mxGeometry>
        </mxCell>
        <mxCell id="label236" value="«create»" style="edgeLabel;resizable=0;html=1;align=left;verticalAlign=top;strokeColor=default;" parent="edge39" vertex="1" connectable="0">
          <mxGeometry x="188" y="195" as="geometry" />
        </mxCell>
        <mxCell id="edge23" value="" style="html=1;rounded=1;edgeStyle=orthogonalEdgeStyle;dashed=1;startArrow=none;endArrow=openThin;endSize=12;strokeColor=#595959;exitX=1.000;exitY=0.500;exitDx=0;exitDy=0;entryX=0.500;entryY=1.001;entryDx=0;entryDy=0;" parent="1" source="node14" target="node20" edge="1">
          <mxGeometry width="50" height="50" relative="1" as="geometry">
            <Array as="points">
              <mxPoint x="100" y="404" />
              <mxPoint x="100" y="309" />
              <mxPoint x="54" y="309" />
            </Array>
          </mxGeometry>
        </mxCell>
        <mxCell id="label140" value="«create»" style="edgeLabel;resizable=0;html=1;align=left;verticalAlign=top;strokeColor=default;" parent="edge23" vertex="1" connectable="0">
          <mxGeometry x="52" y="317" as="geometry" />
        </mxCell>
        <mxCell id="edge7" value="" style="html=1;rounded=1;edgeStyle=orthogonalEdgeStyle;dashed=1;startArrow=none;endArrow=openThin;endSize=12;strokeColor=#595959;exitX=0.414;exitY=0.001;exitDx=0;exitDy=0;entryX=0.500;entryY=1.002;entryDx=0;entryDy=0;" parent="1" source="node14" target="node34" edge="1">
          <mxGeometry width="50" height="50" relative="1" as="geometry">
            <Array as="points">
              <mxPoint x="-37" y="334" />
              <mxPoint x="-74" y="334" />
            </Array>
          </mxGeometry>
        </mxCell>
        <mxCell id="label44" value="«create»" style="edgeLabel;resizable=0;html=1;align=left;verticalAlign=top;strokeColor=default;" parent="edge7" vertex="1" connectable="0">
          <mxGeometry x="-63" y="315" as="geometry" />
        </mxCell>
        <mxCell id="edge10" value="" style="html=1;rounded=1;edgeStyle=orthogonalEdgeStyle;dashed=1;startArrow=none;endArrow=openThin;endSize=12;strokeColor=#595959;exitX=0.586;exitY=0.001;exitDx=0;exitDy=0;entryX=0.650;entryY=1.001;entryDx=0;entryDy=0;" parent="1" source="node14" target="node9" edge="1">
          <mxGeometry width="50" height="50" relative="1" as="geometry">
            <Array as="points">
              <mxPoint x="-7" y="371" />
              <mxPoint x="360" y="371" />
            </Array>
          </mxGeometry>
        </mxCell>
        <mxCell id="label62" value="«create»" style="edgeLabel;resizable=0;html=1;align=left;verticalAlign=top;strokeColor=default;" parent="edge10" vertex="1" connectable="0">
          <mxGeometry x="151" y="352" as="geometry" />
        </mxCell>
        <mxCell id="edge3" value="" style="html=1;rounded=1;edgeStyle=orthogonalEdgeStyle;dashed=1;startArrow=none;endArrow=openThin;endSize=12;strokeColor=#595959;exitX=0.582;exitY=0.001;exitDx=0;exitDy=0;entryX=0.500;entryY=1.002;entryDx=0;entryDy=0;" parent="1" source="node0" target="node16" edge="1">
          <mxGeometry width="50" height="50" relative="1" as="geometry">
            <Array as="points">
              <mxPoint x="980" y="288" />
              <mxPoint x="980" y="255" />
              <mxPoint x="411" y="255" />
            </Array>
          </mxGeometry>
        </mxCell>
        <mxCell id="label20" value="«create»" style="edgeLabel;resizable=0;html=1;align=left;verticalAlign=top;strokeColor=default;" parent="edge3" vertex="1" connectable="0">
          <mxGeometry x="385" y="230" as="geometry" />
        </mxCell>
        <mxCell id="edge21" value="" style="html=1;rounded=1;edgeStyle=orthogonalEdgeStyle;dashed=1;startArrow=none;endArrow=openThin;endSize=12;strokeColor=#595959;exitX=0.500;exitY=0.002;exitDx=0;exitDy=0;entryX=0.500;entryY=1.001;entryDx=0;entryDy=0;" parent="1" source="node0" target="node28" edge="1">
          <mxGeometry width="50" height="50" relative="1" as="geometry">
            <Array as="points">
              <mxPoint x="1105" y="238" />
              <mxPoint x="532" y="238" />
            </Array>
          </mxGeometry>
        </mxCell>
        <mxCell id="label128" value="«create»" style="edgeLabel;resizable=0;html=1;align=left;verticalAlign=top;strokeColor=default;" parent="edge21" vertex="1" connectable="0">
          <mxGeometry x="515" y="194" as="geometry" />
        </mxCell>
        <mxCell id="edge48" value="" style="html=1;rounded=1;edgeStyle=orthogonalEdgeStyle;dashed=1;startArrow=none;endArrow=openThin;endSize=12;strokeColor=#595959;exitX=0.500;exitY=0.001;exitDx=0;exitDy=0;entryX=0.500;entryY=1.001;entryDx=0;entryDy=0;" parent="1" source="node21" target="node3" edge="1">
          <mxGeometry width="50" height="50" relative="1" as="geometry">
            <Array as="points">
              <mxPoint x="948" y="459" />
              <mxPoint x="761" y="459" />
            </Array>
          </mxGeometry>
        </mxCell>
        <mxCell id="label290" value="«create»" style="edgeLabel;resizable=0;html=1;align=left;verticalAlign=top;strokeColor=default;" parent="edge48" vertex="1" connectable="0">
          <mxGeometry x="896" y="460" as="geometry" />
        </mxCell>
        <mxCell id="edge12" value="" style="html=1;rounded=1;edgeStyle=orthogonalEdgeStyle;dashed=0;startArrow=diamondThinstartSize=12;endArrow=openThin;endSize=12;strokeColor=#595959;exitX=0.326;exitY=1.001;exitDx=0;exitDy=0;entryX=0.430;entryY=0.001;entryDx=0;entryDy=0;" parent="1" source="node3" target="node2" edge="1">
          <mxGeometry width="50" height="50" relative="1" as="geometry">
            <Array as="points">
              <mxPoint x="746" y="436" />
              <mxPoint x="-147" y="436" />
              <mxPoint x="-147" y="94" />
              <mxPoint x="219" y="94" />
            </Array>
          </mxGeometry>
        </mxCell>
        <mxCell id="label72" value="1" style="edgeLabel;resizable=0;html=1;align=left;verticalAlign=top;strokeColor=default;" parent="edge12" vertex="1" connectable="0">
          <mxGeometry x="746" y="418" as="geometry" />
        </mxCell>
        <mxCell id="label76" value="1" style="edgeLabel;resizable=0;html=1;align=left;verticalAlign=top;strokeColor=default;" parent="edge12" vertex="1" connectable="0">
          <mxGeometry x="219" y="101" as="geometry" />
        </mxCell>
        <mxCell id="label77" value="tabOfAccommodations" style="edgeLabel;resizable=0;html=1;align=left;verticalAlign=top;strokeColor=default;" parent="edge12" vertex="1" connectable="0">
          <mxGeometry x="-180" y="50" as="geometry">
            <mxPoint x="7" y="7" as="offset" />
          </mxGeometry>
        </mxCell>
        <mxCell id="edge54" value="" style="html=1;rounded=1;edgeStyle=orthogonalEdgeStyle;dashed=1;startArrow=none;endArrow=openThin;endSize=12;strokeColor=#595959;exitX=0.234;exitY=0.001;exitDx=0;exitDy=0;entryX=0.500;entryY=1.002;entryDx=0;entryDy=0;" parent="1" source="node3" target="node2" edge="1">
          <mxGeometry width="50" height="50" relative="1" as="geometry">
            <Array as="points">
              <mxPoint x="739" y="353" />
              <mxPoint x="234" y="353" />
            </Array>
          </mxGeometry>
        </mxCell>
        <mxCell id="label326" value="«create»" style="edgeLabel;resizable=0;html=1;align=left;verticalAlign=top;strokeColor=default;" parent="edge54" vertex="1" connectable="0">
          <mxGeometry x="182" y="251" as="geometry" />
        </mxCell>
        <mxCell id="edge26" value="" style="html=1;rounded=1;edgeStyle=orthogonalEdgeStyle;dashed=1;startArrow=none;endArrow=openThin;endSize=12;strokeColor=#595959;exitX=0.849;exitY=0.001;exitDx=0;exitDy=0;entryX=0.650;entryY=1.001;entryDx=0;entryDy=0;" parent="1" source="node3" target="node9" edge="1">
          <mxGeometry width="50" height="50" relative="1" as="geometry">
            <Array as="points">
              <mxPoint x="791" y="371" />
              <mxPoint x="360" y="371" />
            </Array>
          </mxGeometry>
        </mxCell>
        <mxCell id="label158" value="«create»" style="edgeLabel;resizable=0;html=1;align=left;verticalAlign=top;strokeColor=default;" parent="edge26" vertex="1" connectable="0">
          <mxGeometry x="467" y="372" as="geometry" />
        </mxCell>
        <mxCell id="edge11" value="" style="html=1;rounded=1;edgeStyle=orthogonalEdgeStyle;dashed=1;startArrow=none;endArrow=openThin;endSize=12;strokeColor=#595959;exitX=0.500;exitY=0.001;exitDx=0;exitDy=0;entryX=0.500;entryY=1.001;entryDx=0;entryDy=0;" parent="1" source="node3" target="node27" edge="1">
          <mxGeometry width="50" height="50" relative="1" as="geometry">
            <Array as="points">
              <mxPoint x="761" y="353" />
              <mxPoint x="1591" y="353" />
            </Array>
          </mxGeometry>
        </mxCell>
        <mxCell id="label68" value="«create»" style="edgeLabel;resizable=0;html=1;align=left;verticalAlign=top;strokeColor=default;" parent="edge11" vertex="1" connectable="0">
          <mxGeometry x="1555" y="340" as="geometry" />
        </mxCell>
        <mxCell id="edge25" value="" style="html=1;rounded=1;edgeStyle=orthogonalEdgeStyle;dashed=0;startArrow=diamondThinstartSize=12;endArrow=openThin;endSize=12;strokeColor=#595959;exitX=0.000;exitY=0.500;exitDx=0;exitDy=0;entryX=0.381;entryY=1.001;entryDx=0;entryDy=0;" parent="1" source="node3" target="node7" edge="1">
          <mxGeometry width="50" height="50" relative="1" as="geometry">
            <Array as="points">
              <mxPoint x="658" y="404" />
            </Array>
          </mxGeometry>
        </mxCell>
        <mxCell id="label150" value="1" style="edgeLabel;resizable=0;html=1;align=left;verticalAlign=top;strokeColor=default;" parent="edge25" vertex="1" connectable="0">
          <mxGeometry x="661" y="336" as="geometry" />
        </mxCell>
        <mxCell id="label154" value="1" style="edgeLabel;resizable=0;html=1;align=left;verticalAlign=top;strokeColor=default;" parent="edge25" vertex="1" connectable="0">
          <mxGeometry x="646" y="186" as="geometry" />
        </mxCell>
        <mxCell id="label155" value="tabOfUsers" style="edgeLabel;resizable=0;html=1;align=left;verticalAlign=top;strokeColor=default;" parent="edge25" vertex="1" connectable="0">
          <mxGeometry x="658" y="186" as="geometry" />
        </mxCell>
        <mxCell id="edge31" value="" style="html=1;rounded=1;edgeStyle=orthogonalEdgeStyle;dashed=1;startArrow=none;endArrow=openThin;endSize=12;strokeColor=#595959;exitX=0.674;exitY=0.001;exitDx=0;exitDy=0;entryX=0.500;entryY=1.001;entryDx=0;entryDy=0;" parent="1" source="node3" target="node7" edge="1">
          <mxGeometry width="50" height="50" relative="1" as="geometry">
            <Array as="points">
              <mxPoint x="776" y="272" />
              <mxPoint x="673" y="272" />
            </Array>
          </mxGeometry>
        </mxCell>
        <mxCell id="label188" value="«create»" style="edgeLabel;resizable=0;html=1;align=left;verticalAlign=top;strokeColor=default;" parent="edge31" vertex="1" connectable="0">
          <mxGeometry x="621" y="237" as="geometry" />
        </mxCell>
        <mxCell id="edge16" value="" style="html=1;rounded=1;edgeStyle=orthogonalEdgeStyle;dashed=1;startArrow=none;endArrow=openThin;endSize=12;strokeColor=#595959;exitX=0.500;exitY=0.001;exitDx=0;exitDy=0;entryX=0.500;entryY=1.001;entryDx=0;entryDy=0;" parent="1" source="node22" target="node3" edge="1">
          <mxGeometry width="50" height="50" relative="1" as="geometry">
            <Array as="points">
              <mxPoint x="1341" y="459" />
              <mxPoint x="761" y="459" />
            </Array>
          </mxGeometry>
        </mxCell>
        <mxCell id="label98" value="«create»" style="edgeLabel;resizable=0;html=1;align=left;verticalAlign=top;strokeColor=default;" parent="edge16" vertex="1" connectable="0">
          <mxGeometry x="1025" y="440" as="geometry" />
        </mxCell>
        <mxCell id="edge37" value="" style="html=1;rounded=1;edgeStyle=orthogonalEdgeStyle;dashed=1;startArrow=none;endArrow=openThin;endSize=12;strokeColor=#595959;exitX=0.628;exitY=0.001;exitDx=0;exitDy=0;entryX=0.500;entryY=1.002;entryDx=0;entryDy=0;" parent="1" source="node22" target="node29" edge="1">
          <mxGeometry width="50" height="50" relative="1" as="geometry">
            <Array as="points">
              <mxPoint x="1356" y="256" />
              <mxPoint x="1475" y="256" />
            </Array>
          </mxGeometry>
        </mxCell>
        <mxCell id="label224" value="«create»" style="edgeLabel;resizable=0;html=1;align=left;verticalAlign=top;strokeColor=default;" parent="edge37" vertex="1" connectable="0">
          <mxGeometry x="1423" y="193" as="geometry" />
        </mxCell>
        <mxCell id="edge52" value="" style="html=1;rounded=1;edgeStyle=orthogonalEdgeStyle;dashed=1;startArrow=none;endArrow=openThin;endSize=12;strokeColor=#595959;exitX=0.500;exitY=0.001;exitDx=0;exitDy=0;entryX=0.500;entryY=1.001;entryDx=0;entryDy=0;" parent="1" source="node25" target="node3" edge="1">
          <mxGeometry width="50" height="50" relative="1" as="geometry">
            <Array as="points">
              <mxPoint x="785" y="459" />
              <mxPoint x="761" y="459" />
            </Array>
          </mxGeometry>
        </mxCell>
        <mxCell id="label314" value="«create»" style="edgeLabel;resizable=0;html=1;align=left;verticalAlign=top;strokeColor=default;" parent="edge52" vertex="1" connectable="0">
          <mxGeometry x="733" y="460" as="geometry" />
        </mxCell>
        <mxCell id="edge55" value="" style="html=1;rounded=1;edgeStyle=orthogonalEdgeStyle;dashed=1;startArrow=none;endArrow=openThin;endSize=12;strokeColor=#595959;exitX=0.500;exitY=1.002;exitDx=0;exitDy=0;entryX=1.000;entryY=0.500;entryDx=0;entryDy=0;" parent="1" source="node30" target="node39" edge="1">
          <mxGeometry width="50" height="50" relative="1" as="geometry">
            <Array as="points">
              <mxPoint x="1304" y="205" />
              <mxPoint x="1904" y="205" />
              <mxPoint x="1904" />
            </Array>
          </mxGeometry>
        </mxCell>
        <mxCell id="label332" value="«create»" style="edgeLabel;resizable=0;html=1;align=left;verticalAlign=top;strokeColor=default;" parent="edge55" vertex="1" connectable="0">
          <mxGeometry x="1878" y="163" as="geometry" />
        </mxCell>
        <mxCell id="edge13" value="" style="html=1;rounded=1;edgeStyle=orthogonalEdgeStyle;dashed=1;startArrow=none;endArrow=openThin;endSize=12;strokeColor=#595959;exitX=0.500;exitY=1.001;exitDx=0;exitDy=0;entryX=0.500;entryY=1.002;entryDx=0;entryDy=0;" parent="1" source="node9" target="node2" edge="1">
          <mxGeometry width="50" height="50" relative="1" as="geometry">
            <Array as="points">
              <mxPoint x="345" y="353" />
              <mxPoint x="234" y="353" />
            </Array>
          </mxGeometry>
        </mxCell>
        <mxCell id="label80" value="«create»" style="edgeLabel;resizable=0;html=1;align=left;verticalAlign=top;strokeColor=default;" parent="edge13" vertex="1" connectable="0">
          <mxGeometry x="188" y="276" as="geometry" />
        </mxCell>
        <mxCell id="edge17" value="" style="html=1;rounded=1;edgeStyle=orthogonalEdgeStyle;dashed=1;startArrow=none;endArrow=openThin;endSize=12;strokeColor=#595959;exitX=0.000;exitY=0.500;exitDx=0;exitDy=0;entryX=0.500;entryY=1.001;entryDx=0;entryDy=0;" parent="1" source="node9" target="node20" edge="1">
          <mxGeometry width="50" height="50" relative="1" as="geometry">
            <Array as="points">
              <mxPoint x="100" y="302" />
              <mxPoint x="100" y="309" />
              <mxPoint x="54" y="309" />
            </Array>
          </mxGeometry>
        </mxCell>
        <mxCell id="label104" value="«create»" style="edgeLabel;resizable=0;html=1;align=left;verticalAlign=top;strokeColor=default;" parent="edge17" vertex="1" connectable="0">
          <mxGeometry x="48" y="293" as="geometry" />
        </mxCell>
        <mxCell id="edge42" value="" style="html=1;rounded=1;edgeStyle=orthogonalEdgeStyle;dashed=0;startArrow=diamondThinstartSize=12;endArrow=openThin;endSize=12;strokeColor=#595959;exitX=0.200;exitY=0.001;exitDx=0;exitDy=0;entryX=0.942;entryY=1.001;entryDx=0;entryDy=0;" parent="1" source="node9" target="node20" edge="1">
          <mxGeometry width="50" height="50" relative="1" as="geometry">
            <Array as="points">
              <mxPoint x="315" y="223" />
              <mxPoint x="100" y="223" />
            </Array>
          </mxGeometry>
        </mxCell>
        <mxCell id="label252" value="1" style="edgeLabel;resizable=0;html=1;align=left;verticalAlign=top;strokeColor=default;" parent="edge42" vertex="1" connectable="0">
          <mxGeometry x="309" y="205" as="geometry" />
        </mxCell>
        <mxCell id="label256" value="1" style="edgeLabel;resizable=0;html=1;align=left;verticalAlign=top;strokeColor=default;" parent="edge42" vertex="1" connectable="0">
          <mxGeometry x="94" y="186" as="geometry" />
        </mxCell>
        <mxCell id="label257" value="adress" style="edgeLabel;resizable=0;html=1;align=left;verticalAlign=top;strokeColor=default;" parent="edge42" vertex="1" connectable="0">
          <mxGeometry x="111" y="168" as="geometry" />
        </mxCell>
        <mxCell id="edge33" value="" style="html=1;rounded=1;edgeStyle=orthogonalEdgeStyle;dashed=0;startArrow=diamondThinstartSize=12;endArrow=openThin;endSize=12;strokeColor=#595959;exitX=0.050;exitY=0.002;exitDx=0;exitDy=0;entryX=0.634;entryY=1.001;entryDx=0;entryDy=0;" parent="1" source="node9" target="node34" edge="1">
          <mxGeometry width="50" height="50" relative="1" as="geometry">
            <Array as="points">
              <mxPoint x="300" y="238" />
              <mxPoint x="-59" y="238" />
            </Array>
          </mxGeometry>
        </mxCell>
        <mxCell id="label198" value="1" style="edgeLabel;resizable=0;html=1;align=left;verticalAlign=top;strokeColor=default;" parent="edge33" vertex="1" connectable="0">
          <mxGeometry x="115" y="220" as="geometry" />
        </mxCell>
        <mxCell id="label202" value="1" style="edgeLabel;resizable=0;html=1;align=left;verticalAlign=top;strokeColor=default;" parent="edge33" vertex="1" connectable="0">
          <mxGeometry x="-65" y="194" as="geometry" />
        </mxCell>
        <mxCell id="label203" value="contact" style="edgeLabel;resizable=0;html=1;align=left;verticalAlign=top;strokeColor=default;" parent="edge33" vertex="1" connectable="0">
          <mxGeometry x="-81" y="238" as="geometry" />
        </mxCell>
        <mxCell id="edge36" value="" style="html=1;rounded=1;edgeStyle=orthogonalEdgeStyle;dashed=1;startArrow=none;endArrow=openThin;endSize=12;strokeColor=#595959;exitX=0.350;exitY=1.001;exitDx=0;exitDy=0;entryX=0.500;entryY=1.002;entryDx=0;entryDy=0;" parent="1" source="node9" target="node34" edge="1">
          <mxGeometry width="50" height="50" relative="1" as="geometry">
            <Array as="points">
              <mxPoint x="330" y="334" />
              <mxPoint x="-74" y="334" />
            </Array>
          </mxGeometry>
        </mxCell>
        <mxCell id="label218" value="«create»" style="edgeLabel;resizable=0;html=1;align=left;verticalAlign=top;strokeColor=default;" parent="edge36" vertex="1" connectable="0">
          <mxGeometry x="-33" y="315" as="geometry" />
        </mxCell>
        <mxCell id="edge9" value="" style="html=1;rounded=1;edgeStyle=orthogonalEdgeStyle;dashed=1;startArrow=none;endArrow=openThin;endSize=12;strokeColor=#595959;exitX=0.650;exitY=0.001;exitDx=0;exitDy=0;entryX=0.500;entryY=1.002;entryDx=0;entryDy=0;" parent="1" source="node9" target="node16" edge="1">
          <mxGeometry width="50" height="50" relative="1" as="geometry">
            <Array as="points">
              <mxPoint x="360" y="255" />
              <mxPoint x="411" y="255" />
            </Array>
          </mxGeometry>
        </mxCell>
        <mxCell id="label56" value="«create»" style="edgeLabel;resizable=0;html=1;align=left;verticalAlign=top;strokeColor=default;" parent="edge9" vertex="1" connectable="0">
          <mxGeometry x="360" y="196" as="geometry" />
        </mxCell>
        <mxCell id="edge41" value="" style="html=1;rounded=1;edgeStyle=orthogonalEdgeStyle;dashed=0;startArrow=diamondThinstartSize=12;endArrow=openThin;endSize=12;strokeColor=#595959;exitX=0.350;exitY=0.001;exitDx=0;exitDy=0;entryX=0.272;entryY=1.001;entryDx=0;entryDy=0;" parent="1" source="node9" target="node16" edge="1">
          <mxGeometry width="50" height="50" relative="1" as="geometry">
            <Array as="points">
              <mxPoint x="330" y="223" />
              <mxPoint x="388" y="223" />
            </Array>
          </mxGeometry>
        </mxCell>
        <mxCell id="label246" value="1" style="edgeLabel;resizable=0;html=1;align=left;verticalAlign=top;strokeColor=default;" parent="edge41" vertex="1" connectable="0">
          <mxGeometry x="334" y="223" as="geometry" />
        </mxCell>
        <mxCell id="label250" value="*" style="edgeLabel;resizable=0;html=1;align=left;verticalAlign=top;strokeColor=default;" parent="edge41" vertex="1" connectable="0">
          <mxGeometry x="378" y="159" as="geometry" />
        </mxCell>
        <mxCell id="label251" value="ratings" style="edgeLabel;resizable=0;html=1;align=left;verticalAlign=top;strokeColor=default;" parent="edge41" vertex="1" connectable="0">
          <mxGeometry x="388" y="159" as="geometry" />
        </mxCell>
        <mxCell id="edge47" value="" style="html=1;rounded=1;edgeStyle=orthogonalEdgeStyle;dashed=0;startArrow=diamondThinstartSize=12;endArrow=openThin;endSize=12;strokeColor=#595959;exitX=1.000;exitY=0.500;exitDx=0;exitDy=0;entryX=0.646;entryY=1.001;entryDx=0;entryDy=0;" parent="1" source="node9" target="node28" edge="1">
          <mxGeometry width="50" height="50" relative="1" as="geometry">
            <Array as="points">
              <mxPoint x="547" y="302" />
            </Array>
          </mxGeometry>
        </mxCell>
        <mxCell id="label282" value="1" style="edgeLabel;resizable=0;html=1;align=left;verticalAlign=top;strokeColor=default;" parent="edge47" vertex="1" connectable="0">
          <mxGeometry x="400" y="287" as="geometry" />
        </mxCell>
        <mxCell id="label286" value="*" style="edgeLabel;resizable=0;html=1;align=left;verticalAlign=top;strokeColor=default;" parent="edge47" vertex="1" connectable="0">
          <mxGeometry x="537" y="173" as="geometry" />
        </mxCell>
        <mxCell id="label287" value="rooms" style="edgeLabel;resizable=0;html=1;align=left;verticalAlign=top;strokeColor=default;" parent="edge47" vertex="1" connectable="0">
          <mxGeometry x="547" y="173" as="geometry" />
        </mxCell>
        <mxCell id="edge49" value="" style="html=1;rounded=1;edgeStyle=orthogonalEdgeStyle;dashed=1;startArrow=none;endArrow=openThin;endSize=12;strokeColor=#595959;exitX=0.500;exitY=0.002;exitDx=0;exitDy=0;entryX=0.500;entryY=1.001;entryDx=0;entryDy=0;" parent="1" source="node9" target="node28" edge="1">
          <mxGeometry width="50" height="50" relative="1" as="geometry">
            <Array as="points">
              <mxPoint x="345" y="238" />
              <mxPoint x="532" y="238" />
            </Array>
          </mxGeometry>
        </mxCell>
        <mxCell id="label296" value="«create»" style="edgeLabel;resizable=0;html=1;align=left;verticalAlign=top;strokeColor=default;" parent="edge49" vertex="1" connectable="0">
          <mxGeometry x="478" y="209" as="geometry" />
        </mxCell>
        <mxCell id="edge44" value="" style="html=1;rounded=1;edgeStyle=orthogonalEdgeStyle;dashed=1;startArrow=none;endArrow=openThin;endSize=12;strokeColor=#595959;exitX=0.687;exitY=0.002;exitDx=0;exitDy=0;entryX=1.000;entryY=0.500;entryDx=0;entryDy=0;" parent="1" source="node17" target="node32" edge="1">
          <mxGeometry width="50" height="50" relative="1" as="geometry">
            <Array as="points">
              <mxPoint x="2082" y="404" />
            </Array>
          </mxGeometry>
        </mxCell>
        <mxCell id="label266" value="«create»" style="edgeLabel;resizable=0;html=1;align=left;verticalAlign=top;strokeColor=default;" parent="edge44" vertex="1" connectable="0">
          <mxGeometry x="2048" y="385" as="geometry" />
        </mxCell>
        <mxCell id="edge19" value="" style="html=1;rounded=1;edgeStyle=orthogonalEdgeStyle;dashed=1;startArrow=none;endArrow=openThin;endSize=12;strokeColor=#595959;exitX=0.514;exitY=0.001;exitDx=0;exitDy=0;entryX=1.000;entryY=0.500;entryDx=0;entryDy=0;" parent="1" source="node17" target="node39" edge="1">
          <mxGeometry width="50" height="50" relative="1" as="geometry">
            <Array as="points">
              <mxPoint x="2067" y="205" />
              <mxPoint x="1904" y="205" />
              <mxPoint x="1904" />
            </Array>
          </mxGeometry>
        </mxCell>
        <mxCell id="label116" value="«create»" style="edgeLabel;resizable=0;html=1;align=left;verticalAlign=top;strokeColor=default;" parent="edge19" vertex="1" connectable="0">
          <mxGeometry x="1932" y="186" as="geometry" />
        </mxCell>
        <mxCell id="edge51" value="" style="html=1;rounded=1;edgeStyle=orthogonalEdgeStyle;dashed=1;startArrow=none;endArrow=openThin;endSize=12;strokeColor=#595959;exitX=0.342;exitY=0.001;exitDx=0;exitDy=0;entryX=0.000;entryY=0.500;entryDx=0;entryDy=0;" parent="1" source="node17" target="node37" edge="1">
          <mxGeometry width="50" height="50" relative="1" as="geometry">
            <Array as="points">
              <mxPoint x="2052" y="479" />
              <mxPoint x="1710" y="479" />
              <mxPoint x="1710" y="140" />
            </Array>
          </mxGeometry>
        </mxCell>
        <mxCell id="label308" value="«create»" style="edgeLabel;resizable=0;html=1;align=left;verticalAlign=top;strokeColor=default;" parent="edge51" vertex="1" connectable="0">
          <mxGeometry x="1855" y="460" as="geometry" />
        </mxCell>
        <mxCell id="edge32" value="" style="html=1;rounded=1;edgeStyle=orthogonalEdgeStyle;dashed=1;startArrow=none;endArrow=openThin;endSize=12;strokeColor=#595959;exitX=0.500;exitY=0.001;exitDx=0;exitDy=0;entryX=0.500;entryY=1.001;entryDx=0;entryDy=0;" parent="1" source="node32" target="node27" edge="1">
          <mxGeometry width="50" height="50" relative="1" as="geometry">
            <Array as="points">
              <mxPoint x="1987" y="353" />
              <mxPoint x="1591" y="353" />
            </Array>
          </mxGeometry>
        </mxCell>
        <mxCell id="label194" value="«create»" style="edgeLabel;resizable=0;html=1;align=left;verticalAlign=top;strokeColor=default;" parent="edge32" vertex="1" connectable="0">
          <mxGeometry x="1763" y="334" as="geometry" />
        </mxCell>
        <mxCell id="edge15" value="" style="html=1;rounded=1;edgeStyle=orthogonalEdgeStyle;dashed=1;startArrow=none;endArrow=openThin;endSize=12;strokeColor=#595959;exitX=0.500;exitY=0.001;exitDx=0;exitDy=0;entryX=0.500;entryY=1.001;entryDx=0;entryDy=0;" parent="1" source="node12" target="node3" edge="1">
          <mxGeometry width="50" height="50" relative="1" as="geometry">
            <Array as="points">
              <mxPoint x="1896" y="459" />
              <mxPoint x="761" y="459" />
            </Array>
          </mxGeometry>
        </mxCell>
        <mxCell id="label92" value="«create»" style="edgeLabel;resizable=0;html=1;align=left;verticalAlign=top;strokeColor=default;" parent="edge15" vertex="1" connectable="0">
          <mxGeometry x="1303" y="440" as="geometry" />
        </mxCell>
        <mxCell id="edge45" value="" style="html=1;rounded=1;edgeStyle=orthogonalEdgeStyle;dashed=1;startArrow=none;endArrow=openThin;endSize=12;strokeColor=#595959;exitX=0.685;exitY=0.001;exitDx=0;exitDy=0;entryX=1.000;entryY=0.500;entryDx=0;entryDy=0;" parent="1" source="node12" target="node39" edge="1">
          <mxGeometry width="50" height="50" relative="1" as="geometry">
            <Array as="points">
              <mxPoint x="1931" y="436" />
              <mxPoint x="1904" y="436" />
              <mxPoint x="1904" />
            </Array>
          </mxGeometry>
        </mxCell>
        <mxCell id="label272" value="«create»" style="edgeLabel;resizable=0;html=1;align=left;verticalAlign=top;strokeColor=default;" parent="edge45" vertex="1" connectable="0">
          <mxGeometry x="1825" y="-19" as="geometry" />
        </mxCell>
        <mxCell id="edge30" value="" style="html=1;rounded=1;edgeStyle=orthogonalEdgeStyle;dashed=1;startArrow=none;endArrow=openThin;endSize=12;strokeColor=#595959;exitX=0.579;exitY=0.001;exitDx=0;exitDy=0;entryX=0.000;entryY=0.500;entryDx=0;entryDy=0;" parent="1" source="node12" target="node37" edge="1">
          <mxGeometry width="50" height="50" relative="1" as="geometry">
            <Array as="points">
              <mxPoint x="1911" y="479" />
              <mxPoint x="1710" y="479" />
              <mxPoint x="1710" y="140" />
            </Array>
          </mxGeometry>
        </mxCell>
        <mxCell id="label182" value="«create»" style="edgeLabel;resizable=0;html=1;align=left;verticalAlign=top;strokeColor=default;" parent="edge30" vertex="1" connectable="0">
          <mxGeometry x="1756" y="470" as="geometry" />
        </mxCell>
        <mxCell id="edge38" value="" style="html=1;rounded=1;edgeStyle=orthogonalEdgeStyle;dashed=1;startArrow=none;endArrow=openThin;endSize=12;strokeColor=#595959;exitX=1.000;exitY=0.500;exitDx=0;exitDy=0;entryX=0.500;entryY=1.001;entryDx=0;entryDy=0;" parent="1" source="node27" target="node3" edge="1">
          <mxGeometry width="50" height="50" relative="1" as="geometry">
            <Array as="points">
              <mxPoint x="1695" y="302" />
              <mxPoint x="1695" y="459" />
              <mxPoint x="761" y="459" />
            </Array>
          </mxGeometry>
        </mxCell>
        <mxCell id="label230" value="«create»" style="edgeLabel;resizable=0;html=1;align=left;verticalAlign=top;strokeColor=default;" parent="edge38" vertex="1" connectable="0">
          <mxGeometry x="1622" y="450" as="geometry" />
        </mxCell>
        <mxCell id="edge24" value="" style="html=1;rounded=1;edgeStyle=orthogonalEdgeStyle;dashed=1;startArrow=none;endArrow=openThin;endSize=12;strokeColor=#595959;exitX=0.378;exitY=0.001;exitDx=0;exitDy=0;entryX=0.500;entryY=1.002;entryDx=0;entryDy=0;" parent="1" source="node27" target="node29" edge="1">
          <mxGeometry width="50" height="50" relative="1" as="geometry">
            <Array as="points">
              <mxPoint x="1576" y="256" />
              <mxPoint x="1475" y="256" />
            </Array>
          </mxGeometry>
        </mxCell>
        <mxCell id="label146" value="«create»" style="edgeLabel;resizable=0;html=1;align=left;verticalAlign=top;strokeColor=default;" parent="edge24" vertex="1" connectable="0">
          <mxGeometry x="1449" y="218" as="geometry" />
        </mxCell>
        <mxCell id="edge43" value="" style="html=1;rounded=1;edgeStyle=orthogonalEdgeStyle;dashed=0;startArrow=diamondThinstartSize=12;endArrow=openThin;endSize=12;strokeColor=#595959;exitX=0.000;exitY=0.500;exitDx=0;exitDy=0;entryX=0.617;entryY=1.001;entryDx=0;entryDy=0;" parent="1" source="node27" target="node29" edge="1">
          <mxGeometry width="50" height="50" relative="1" as="geometry">
            <Array as="points">
              <mxPoint x="1490" y="302" />
            </Array>
          </mxGeometry>
        </mxCell>
        <mxCell id="label258" value="1" style="edgeLabel;resizable=0;html=1;align=left;verticalAlign=top;strokeColor=default;" parent="edge43" vertex="1" connectable="0">
          <mxGeometry x="1484" y="189" as="geometry" />
        </mxCell>
        <mxCell id="label262" value="*" style="edgeLabel;resizable=0;html=1;align=left;verticalAlign=top;strokeColor=default;" parent="edge43" vertex="1" connectable="0">
          <mxGeometry x="1480" y="159" as="geometry" />
        </mxCell>
        <mxCell id="label263" value="order_history" style="edgeLabel;resizable=0;html=1;align=left;verticalAlign=top;strokeColor=default;" parent="edge43" vertex="1" connectable="0">
          <mxGeometry x="1529" y="208" as="geometry" />
        </mxCell>
        <mxCell id="edge46" value="" style="html=1;rounded=1;edgeStyle=orthogonalEdgeStyle;dashed=1;startArrow=none;endArrow=openThin;endSize=12;strokeColor=#595959;exitX=0.500;exitY=0.001;exitDx=0;exitDy=0;entryX=0.000;entryY=0.500;entryDx=0;entryDy=0;" parent="1" source="node27" target="node23" edge="1">
          <mxGeometry width="50" height="50" relative="1" as="geometry">
            <Array as="points">
              <mxPoint x="1591" y="179" />
              <mxPoint x="1201" y="179" />
              <mxPoint x="1201" />
            </Array>
          </mxGeometry>
        </mxCell>
        <mxCell id="label278" value="«create»" style="edgeLabel;resizable=0;html=1;align=left;verticalAlign=top;strokeColor=default;" parent="edge46" vertex="1" connectable="0">
          <mxGeometry x="1263" y="-35" as="geometry" />
        </mxCell>
        <mxCell id="edge14" value="" style="html=1;rounded=1;edgeStyle=orthogonalEdgeStyle;dashed=0;startArrow=diamondThinstartSize=12;endArrow=openThin;endSize=12;strokeColor=#595959;exitX=0.955;exitY=0.001;exitDx=0;exitDy=0;entryX=0.825;entryY=1.001;entryDx=0;entryDy=0;" parent="1" source="node27" target="node8" edge="1">
          <mxGeometry width="50" height="50" relative="1" as="geometry">
            <Array as="points" />
          </mxGeometry>
        </mxCell>
        <mxCell id="label84" value="1" style="edgeLabel;resizable=0;html=1;align=left;verticalAlign=top;strokeColor=default;" parent="edge14" vertex="1" connectable="0">
          <mxGeometry x="1641" y="271" as="geometry" />
        </mxCell>
        <mxCell id="label88" value="*" style="edgeLabel;resizable=0;html=1;align=left;verticalAlign=top;strokeColor=default;" parent="edge14" vertex="1" connectable="0">
          <mxGeometry x="1631" y="158" as="geometry" />
        </mxCell>
        <mxCell id="label89" value="reviews" style="edgeLabel;resizable=0;html=1;align=left;verticalAlign=top;strokeColor=default;" parent="edge14" vertex="1" connectable="0">
          <mxGeometry x="1647" y="159" as="geometry" />
        </mxCell>
        <mxCell id="edge35" value="" style="html=1;rounded=1;edgeStyle=orthogonalEdgeStyle;dashed=1;startArrow=none;endArrow=openThin;endSize=12;strokeColor=#595959;exitX=0.021;exitY=0.001;exitDx=0;exitDy=0;entryX=0.155;entryY=1.001;entryDx=0;entryDy=0;" parent="1" source="node27" target="node8" edge="1">
          <mxGeometry width="50" height="50" relative="1" as="geometry">
            <Array as="points">
              <mxPoint x="1532" y="223" />
              <mxPoint x="1576" y="223" />
            </Array>
          </mxGeometry>
        </mxCell>
        <mxCell id="label212" value="«create»" style="edgeLabel;resizable=0;html=1;align=left;verticalAlign=top;strokeColor=default;" parent="edge35" vertex="1" connectable="0">
          <mxGeometry x="1528" y="223" as="geometry" />
        </mxCell>
        <mxCell id="edge1" value="" style="html=1;rounded=1;edgeStyle=orthogonalEdgeStyle;dashed=0;startArrow=none;endArrow=block;endSize=12;strokeColor=#000082;exitX=0.833;exitY=0.001;exitDx=0;exitDy=0;entryX=0.250;entryY=1.002;entryDx=0;entryDy=0;" parent="1" source="node27" target="node37" edge="1">
          <mxGeometry width="50" height="50" relative="1" as="geometry">
            <Array as="points">
              <mxPoint x="1632" y="256" />
              <mxPoint x="1808" y="256" />
            </Array>
          </mxGeometry>
        </mxCell>
        <mxCell id="edge27" value="" style="html=1;rounded=1;edgeStyle=orthogonalEdgeStyle;dashed=1;startArrow=none;endArrow=openThin;endSize=12;strokeColor=#595959;exitX=0.622;exitY=0.001;exitDx=0;exitDy=0;entryX=0.500;entryY=1.001;entryDx=0;entryDy=0;" parent="1" source="node27" target="node7" edge="1">
          <mxGeometry width="50" height="50" relative="1" as="geometry">
            <Array as="points">
              <mxPoint x="1606" y="272" />
              <mxPoint x="673" y="272" />
            </Array>
          </mxGeometry>
        </mxCell>
        <mxCell id="label164" value="«create»" style="edgeLabel;resizable=0;html=1;align=left;verticalAlign=top;strokeColor=default;" parent="edge27" vertex="1" connectable="0">
          <mxGeometry x="673" y="211" as="geometry" />
        </mxCell>
        <mxCell id="edge8" value="" style="html=1;rounded=1;edgeStyle=orthogonalEdgeStyle;dashed=1;startArrow=none;endArrow=openThin;endSize=12;strokeColor=#595959;exitX=0.500;exitY=0.001;exitDx=0;exitDy=0;entryX=0.500;entryY=1.001;entryDx=0;entryDy=0;" parent="1" source="node31" target="node3" edge="1">
          <mxGeometry width="50" height="50" relative="1" as="geometry">
            <Array as="points">
              <mxPoint x="575" y="459" />
              <mxPoint x="761" y="459" />
            </Array>
          </mxGeometry>
        </mxCell>
        <mxCell id="label50" value="«create»" style="edgeLabel;resizable=0;html=1;align=left;verticalAlign=top;strokeColor=default;" parent="edge8" vertex="1" connectable="0">
          <mxGeometry x="642" y="440" as="geometry" />
        </mxCell>
        <mxCell id="edge18" value="" style="html=1;rounded=1;edgeStyle=orthogonalEdgeStyle;dashed=1;startArrow=none;endArrow=openThin;endSize=12;strokeColor=#595959;exitX=0.500;exitY=1.002;exitDx=0;exitDy=0;entryX=0.500;entryY=1.001;entryDx=0;entryDy=0;" parent="1" source="node23" target="node3" edge="1">
          <mxGeometry width="50" height="50" relative="1" as="geometry">
            <Array as="points">
              <mxPoint x="1497" y="109" />
              <mxPoint x="1695" y="109" />
              <mxPoint x="1695" y="459" />
              <mxPoint x="761" y="459" />
            </Array>
          </mxGeometry>
        </mxCell>
        <mxCell id="label110" value="«create»" style="edgeLabel;resizable=0;html=1;align=left;verticalAlign=top;strokeColor=default;" parent="edge18" vertex="1" connectable="0">
          <mxGeometry x="761" y="436" as="geometry" />
        </mxCell>
        <mxCell id="edge5" value="" style="html=1;rounded=1;edgeStyle=orthogonalEdgeStyle;dashed=1;startArrow=none;endArrow=openThin;endSize=12;strokeColor=#595959;exitX=0.500;exitY=1.002;exitDx=0;exitDy=0;entryX=0.500;entryY=1.001;entryDx=0;entryDy=0;" parent="1" source="node39" target="node3" edge="1">
          <mxGeometry width="50" height="50" relative="1" as="geometry">
            <Array as="points">
              <mxPoint x="1735" y="109" />
              <mxPoint x="1695" y="109" />
              <mxPoint x="1695" y="459" />
              <mxPoint x="761" y="459" />
            </Array>
          </mxGeometry>
        </mxCell>
        <mxCell id="label32" value="«create»" style="edgeLabel;resizable=0;html=1;align=left;verticalAlign=top;strokeColor=default;" parent="edge5" vertex="1" connectable="0">
          <mxGeometry x="761" y="436" as="geometry" />
        </mxCell>
        <mxCell id="edge28" value="" style="html=1;rounded=1;edgeStyle=orthogonalEdgeStyle;dashed=1;startArrow=none;endArrow=openThin;endSize=12;strokeColor=#595959;exitX=0.000;exitY=0.500;exitDx=0;exitDy=0;entryX=0.000;entryY=0.500;entryDx=0;entryDy=0;" parent="1" source="node1" target="node37" edge="1">
          <mxGeometry width="50" height="50" relative="1" as="geometry">
            <Array as="points">
              <mxPoint x="1710" y="302" />
              <mxPoint x="1710" y="140" />
            </Array>
          </mxGeometry>
        </mxCell>
        <mxCell id="label170" value="«create»" style="edgeLabel;resizable=0;html=1;align=left;verticalAlign=top;strokeColor=default;" parent="edge28" vertex="1" connectable="0">
          <mxGeometry x="1675" y="293" as="geometry" />
        </mxCell>
        <mxCell id="edge20" value="" style="html=1;rounded=1;edgeStyle=orthogonalEdgeStyle;dashed=1;startArrow=none;endArrow=openThin;endSize=12;strokeColor=#595959;exitX=0.566;exitY=1.002;exitDx=0;exitDy=0;entryX=0.000;entryY=0.500;entryDx=0;entryDy=0;" parent="1" source="node15" target="node23" edge="1">
          <mxGeometry width="50" height="50" relative="1" as="geometry">
            <Array as="points">
              <mxPoint x="884" y="179" />
              <mxPoint x="1201" y="179" />
              <mxPoint x="1201" />
            </Array>
          </mxGeometry>
        </mxCell>
        <mxCell id="label122" value="«create»" style="edgeLabel;resizable=0;html=1;align=left;verticalAlign=top;strokeColor=default;" parent="edge20" vertex="1" connectable="0">
          <mxGeometry x="1117" y="160" as="geometry" />
        </mxCell>
        <mxCell id="edge4" value="" style="html=1;rounded=1;edgeStyle=orthogonalEdgeStyle;dashed=1;startArrow=none;endArrow=openThin;endSize=12;strokeColor=#595959;exitX=0.500;exitY=1.002;exitDx=0;exitDy=0;entryX=1.000;entryY=0.500;entryDx=0;entryDy=0;" parent="1" source="node15" target="node39" edge="1">
          <mxGeometry width="50" height="50" relative="1" as="geometry">
            <Array as="points">
              <mxPoint x="869" y="205" />
              <mxPoint x="1904" y="205" />
              <mxPoint x="1904" />
            </Array>
          </mxGeometry>
        </mxCell>
        <mxCell id="label26" value="«create»" style="edgeLabel;resizable=0;html=1;align=left;verticalAlign=top;strokeColor=default;" parent="edge4" vertex="1" connectable="0">
          <mxGeometry x="1705" y="186" as="geometry" />
        </mxCell>
        <mxCell id="edge6" value="" style="html=1;rounded=1;edgeStyle=orthogonalEdgeStyle;dashed=1;startArrow=none;endArrow=openThin;endSize=12;strokeColor=#595959;exitX=0.500;exitY=1.002;exitDx=0;exitDy=0;entryX=0.000;entryY=0.500;entryDx=0;entryDy=0;" parent="1" source="node37" target="node23" edge="1">
          <mxGeometry width="50" height="50" relative="1" as="geometry">
            <Array as="points">
              <mxPoint x="1832" y="179" />
              <mxPoint x="1201" y="179" />
              <mxPoint x="1201" />
            </Array>
          </mxGeometry>
        </mxCell>
        <mxCell id="label38" value="«create»" style="edgeLabel;resizable=0;html=1;align=left;verticalAlign=top;strokeColor=default;" parent="edge6" vertex="1" connectable="0">
          <mxGeometry x="1165" y="170" as="geometry" />
        </mxCell>
        <mxCell id="edge53" value="" style="html=1;rounded=1;edgeStyle=orthogonalEdgeStyle;dashed=0;startArrow=diamondThinstartSize=12;endArrow=openThin;endSize=12;strokeColor=#595959;exitX=0.500;exitY=0.001;exitDx=0;exitDy=0;entryX=0.500;entryY=0.001;entryDx=0;entryDy=0;" parent="1" source="node37" target="node23" edge="1">
          <mxGeometry width="50" height="50" relative="1" as="geometry">
            <Array as="points">
              <mxPoint x="1832" y="-31" />
              <mxPoint x="1497" y="-31" />
            </Array>
          </mxGeometry>
        </mxCell>
        <mxCell id="label318" value="1" style="edgeLabel;resizable=0;html=1;align=left;verticalAlign=top;strokeColor=default;" parent="edge53" vertex="1" connectable="0">
          <mxGeometry x="1485" y="-35" as="geometry" />
        </mxCell>
        <mxCell id="label322" value="1" style="edgeLabel;resizable=0;html=1;align=left;verticalAlign=top;strokeColor=default;" parent="edge53" vertex="1" connectable="0">
          <mxGeometry x="1497" y="-33" as="geometry" />
        </mxCell>
        <mxCell id="label323" value="paymentMethod" style="edgeLabel;resizable=0;html=1;align=left;verticalAlign=top;strokeColor=default;" parent="edge53" vertex="1" connectable="0">
          <mxGeometry x="1418" y="-33" as="geometry" />
        </mxCell>
        <mxCell id="edge29" value="" style="html=1;rounded=1;edgeStyle=orthogonalEdgeStyle;dashed=0;startArrow=diamondThinstartSize=12;endArrow=openThin;endSize=12;strokeColor=#595959;exitX=0.106;exitY=0.001;exitDx=0;exitDy=0;entryX=0.944;entryY=1.001;entryDx=0;entryDy=0;" parent="1" source="node37" target="node39" edge="1">
          <mxGeometry width="50" height="50" relative="1" as="geometry">
            <Array as="points" />
          </mxGeometry>
        </mxCell>
        <mxCell id="label174" value="1" style="edgeLabel;resizable=0;html=1;align=left;verticalAlign=top;strokeColor=default;" parent="edge29" vertex="1" connectable="0">
          <mxGeometry x="1797" y="47" as="geometry" />
        </mxCell>
        <mxCell id="label178" value="1" style="edgeLabel;resizable=0;html=1;align=left;verticalAlign=top;strokeColor=default;" parent="edge29" vertex="1" connectable="0">
          <mxGeometry x="1782" y="19" as="geometry" />
        </mxCell>
        <mxCell id="label179" value="tempSearch" style="edgeLabel;resizable=0;html=1;align=left;verticalAlign=top;strokeColor=default;" parent="edge29" vertex="1" connectable="0">
          <mxGeometry x="1775" y="27" as="geometry" />
        </mxCell>
        <mxCell id="edge40" value="" style="html=1;rounded=1;edgeStyle=orthogonalEdgeStyle;dashed=1;startArrow=none;endArrow=openThin;endSize=12;strokeColor=#595959;exitX=1.001;exitY=0.500;exitDx=0;exitDy=0;entryX=1.000;entryY=0.500;entryDx=0;entryDy=0;" parent="1" source="node37" target="node39" edge="1">
          <mxGeometry width="50" height="50" relative="1" as="geometry">
            <Array as="points">
              <mxPoint x="1904" y="140" />
              <mxPoint x="1904" />
            </Array>
          </mxGeometry>
        </mxCell>
        <mxCell id="label242" value="«create»" style="edgeLabel;resizable=0;html=1;align=left;verticalAlign=top;strokeColor=default;" parent="edge40" vertex="1" connectable="0">
          <mxGeometry x="1844" y="-9" as="geometry" />
        </mxCell>
        <mxCell id="edge0" value="" style="html=1;rounded=1;edgeStyle=orthogonalEdgeStyle;dashed=1;startArrow=none;endArrow=block;endSize=12;strokeColor=#008200;exitX=0.500;exitY=0.001;exitDx=0;exitDy=0;entryX=0.500;entryY=1.001;entryDx=0;entryDy=0;" parent="1" source="node7" target="node10" edge="1">
          <mxGeometry width="50" height="50" relative="1" as="geometry">
            <Array as="points" />
          </mxGeometry>
        </mxCell>
        <mxCell id="edge50" value="" style="html=1;rounded=1;edgeStyle=orthogonalEdgeStyle;dashed=1;startArrow=none;endArrow=openThin;endSize=12;strokeColor=#595959;exitX=0.500;exitY=0.001;exitDx=0;exitDy=0;entryX=0.500;entryY=1.001;entryDx=0;entryDy=0;" parent="1" source="node4" target="node3" edge="1">
          <mxGeometry width="50" height="50" relative="1" as="geometry">
            <Array as="points">
              <mxPoint x="1610" y="459" />
              <mxPoint x="761" y="459" />
            </Array>
          </mxGeometry>
        </mxCell>
        <mxCell id="label302" value="«create»" style="edgeLabel;resizable=0;html=1;align=left;verticalAlign=top;strokeColor=default;" parent="edge50" vertex="1" connectable="0">
          <mxGeometry x="1160" y="440" as="geometry" />
        </mxCell>
        <mxCell id="edge34" value="" style="html=1;rounded=1;edgeStyle=orthogonalEdgeStyle;dashed=1;startArrow=none;endArrow=openThin;endSize=12;strokeColor=#595959;exitX=0.384;exitY=0.001;exitDx=0;exitDy=0;entryX=0.500;entryY=1.001;entryDx=0;entryDy=0;" parent="1" source="node4" target="node27" edge="1">
          <mxGeometry width="50" height="50" relative="1" as="geometry">
            <Array as="points">
              <mxPoint x="1580" y="353" />
              <mxPoint x="1591" y="353" />
            </Array>
          </mxGeometry>
        </mxCell>
        <mxCell id="label206" value="«create»" style="edgeLabel;resizable=0;html=1;align=left;verticalAlign=top;strokeColor=default;" parent="edge34" vertex="1" connectable="0">
          <mxGeometry x="1539" y="339" as="geometry" />
        </mxCell>
        <mxCell id="edge22" value="" style="html=1;rounded=1;edgeStyle=orthogonalEdgeStyle;dashed=1;startArrow=none;endArrow=openThin;endSize=12;strokeColor=#595959;exitX=0.442;exitY=0.001;exitDx=0;exitDy=0;entryX=0.000;entryY=0.500;entryDx=0;entryDy=0;" parent="1" source="node4" target="node37" edge="1">
          <mxGeometry width="50" height="50" relative="1" as="geometry">
            <Array as="points">
              <mxPoint x="1595" y="479" />
              <mxPoint x="1710" y="479" />
              <mxPoint x="1710" y="140" />
            </Array>
          </mxGeometry>
        </mxCell>
        <mxCell id="label134" value="«create»" style="edgeLabel;resizable=0;html=1;align=left;verticalAlign=top;strokeColor=default;" parent="edge22" vertex="1" connectable="0">
          <mxGeometry x="1658" y="357" as="geometry" />
        </mxCell>
      </root>
    </mxGraphModel>
  </diagram>
</mxfile>
